<svg height="469pt" viewBox="-14 0 469 469.07812" width="469pt" xmlns="http://www.w3.org/2000/svg"><path d="m177.175781 459.703125c12.5 12.5 32.761719 12.5 45.257813 0l11.3125-11.308594-79.199219-79.203125-33.9375 33.945313zm0 0" fill="#898890"/><path d="m120.609375 403.136719 33.9375-33.945313zm0 0" fill="#ffcd00"/><path d="m396.824219 44.410156c-28.460938-28.5625-67.164063-44.550781-107.488281-44.410156-4.417969 0-8 3.582031-8 8s3.582031 8 8 8c36.058593-.046875 70.652343 14.253906 96.148437 39.75s39.796875 60.089844 39.75 96.148438c0 4.417968 3.582031 8 8 8s8-3.582032 8-8c.140625-40.324219-15.847656-79.027344-44.410156-107.488282zm0 0" fill="#ff5023"/><path d="m351.570312 89.664062c16.550782 16.480469 25.84375 38.882813 25.824219 62.242188 0 4.417969 3.582031 8 8 8s8-3.582031 8-8c-.097656-57.398438-46.605469-103.90625-104-104-4.417969 0-8 3.582031-8 8s3.582031 8 8 8c23.324219-.019531 45.695313 9.25 62.175781 25.757812zm0 0" fill="#ff5023"/><path d="m143.238281 63.722656 33.941407-33.941406 113.136718 113.136719-33.941406 33.941406zm0 0" fill="#1cb7f1"/><path d="m256.371094 176.859375 33.941406-33.941406 113.136719 113.136719-33.941407 33.941406zm0 0" fill="#00aeef"/><path d="m256.371094 176.863281-113.136719-113.140625-79.191406 214.964844 45.253906 45.25zm0 0" fill="#91dcf5"/><path d="m109.296875 323.9375 45.25 45.253906 214.964844-79.191406-113.140625-113.136719zm0 0" fill="#83d8f4"/><path d="m64.042969 278.6875-45.257813 45.25c-24.996094 24.992188-24.996094 65.519531 0 90.511719l90.511719-90.511719zm0 0" fill="#ff633b"/><path d="m18.785156 414.449219c24.992188 24.996093 65.519532 24.996093 90.511719 0l11.3125-11.3125 33.9375-33.945313-45.25-45.253906zm0 0" fill="#ff5023"/></svg>