<svg id="Layer_1" enable-background="new 0 0 512 512" height="512" viewBox="0 0 512 512" width="512" xmlns="http://www.w3.org/2000/svg"><g><g><path d="m457.161 316.015c-5.858 5.858-5.858 15.355 0 21.213 33.065 33.066 33.065 86.867 0 119.933-16.017 16.018-37.314 24.839-59.966 24.839s-43.949-8.821-59.967-24.839c-5.857-5.858-15.355-5.858-21.213 0s-5.858 15.355 0 21.213c21.684 21.684 50.514 33.626 81.18 33.626s59.496-11.942 81.179-33.626c44.763-44.762 44.763-117.597 0-162.359-5.857-5.858-15.355-5.858-21.213 0z" fill="#98f9ff"/><path d="m174.771 457.161c-16.017 16.018-37.313 24.839-59.966 24.839s-43.949-8.821-59.966-24.839c-33.065-33.066-33.065-86.867 0-119.933 5.858-5.858 5.858-15.355 0-21.213-5.857-5.858-15.355-5.858-21.213 0-44.763 44.762-44.763 117.597 0 162.359 21.684 21.684 50.514 33.626 81.179 33.626s59.496-11.942 81.179-33.626c5.858-5.858 5.858-15.355 0-21.213-5.857-5.858-15.355-5.858-21.213 0z" fill="#b6f1ff"/><path d="m114.805 0c-30.665 0-59.495 11.942-81.179 33.626-44.763 44.762-44.763 117.597 0 162.359 2.929 2.929 6.768 4.394 10.606 4.394s7.678-1.464 10.606-4.394c5.858-5.858 5.858-15.355 0-21.213-33.065-33.066-33.065-86.867 0-119.933 16.018-16.018 37.315-24.839 59.967-24.839s43.949 8.821 59.967 24.839c5.857 5.858 15.355 5.858 21.213 0s5.858-15.355 0-21.213c-21.684-21.684-50.514-33.626-81.18-33.626z" fill="#b6f1ff"/><path d="m337.229 54.839c16.017-16.018 37.313-24.839 59.966-24.839s43.949 8.821 59.966 24.839c33.065 33.066 33.065 86.867 0 119.933-5.858 5.858-5.858 15.355 0 21.213 2.929 2.929 6.768 4.394 10.606 4.394s7.678-1.464 10.606-4.394c44.763-44.762 44.763-117.597 0-162.359-21.683-21.684-50.513-33.626-81.178-33.626s-59.496 11.942-81.179 33.626c-5.858 5.858-5.858 15.355 0 21.213 5.857 5.858 15.355 5.858 21.213 0z" fill="#98f9ff"/></g><g><g><g><g><path d="m434.66 98.56-178.66-50-178.66 49.99c-38.45 43.52-59.46 98.87-59.46 157.45s21.01 113.93 59.46 157.45l178.66 50 178.66-50c38.45-43.52 59.46-98.87 59.46-157.45 0-58.57-21.01-113.92-59.46-157.44zm-76.94 237.95v70h-203.44v-70c-17.54-22.12-28.01-50.09-28.01-80.51s10.47-58.39 28.01-80.51l1.72-70h201.72v70c17.54 22.12 28.01 50.09 28.01 80.51s-10.47 58.39-28.01 80.51z" fill="#f4f1f1"/></g></g></g></g><path d="m494.12 256c0 58.58-21.01 113.93-59.46 157.45l-178.66 50v-56.94h101.72v-70c17.54-22.12 28.01-50.09 28.01-80.51s-10.47-58.39-28.01-80.51v-70h-101.72v-56.93l178.66 50c38.45 43.52 59.46 98.87 59.46 157.44z" fill="#eceae7"/><path d="m434.66 98.56-76.94 76.93c-23.75-29.99-60.49-49.22-101.72-49.22s-77.97 19.23-101.72 49.22l-76.94-76.94c3.3-3.73 6.73-7.38 10.28-10.93 44.98-44.97 104.78-69.74 168.38-69.74s123.4 24.77 168.38 69.74c3.55 3.56 6.98 7.2 10.28 10.94z" fill="#ff6f27"/><path d="m434.66 413.45c-3.3 3.73-6.73 7.38-10.28 10.93-44.98 44.97-104.78 69.74-168.38 69.74s-123.4-24.77-168.38-69.74c-3.55-3.55-6.98-7.2-10.28-10.93l76.94-76.94c23.75 29.99 60.49 49.22 101.72 49.22s77.97-19.23 101.72-49.22z" fill="#ff6f27"/><g fill="#ff3838"><path d="m357.72 336.51 76.94 76.94c-3.3 3.73-6.73 7.38-10.28 10.93-44.98 44.97-104.78 69.74-168.38 69.74v-108.39c41.23 0 77.97-19.23 101.72-49.22z"/><path d="m256 126.27v-108.39c63.6 0 123.4 24.77 168.38 69.74 3.55 3.56 6.98 7.2 10.28 10.94l-76.94 76.93c-23.75-29.99-60.49-49.22-101.72-49.22z"/></g></g></svg>