<svg id="Layer_1" enable-background="new 0 0 512 512" height="512" viewBox="0 0 512 512" width="512" xmlns="http://www.w3.org/2000/svg"><path d="m256 182h-28v37l28 28 28-28v-37z" fill="#ffd3b3"/><path d="m228 196c8.334 3.721 18.296 6 28 6s19.666-2.279 28-6v-15h-56z" fill="#fcb98b"/><g fill="#ffd3b3"><path d="m196 93h-6.95c-5.916 0-10.539 5.108-9.95 10.995l2 20c.511 5.112 4.813 9.005 9.95 9.005h4.95z"/><path d="m316 93h6.95c5.916 0 10.539 5.108 9.95 10.995l-2 20c-.511 5.112-4.813 9.005-9.95 9.005h-4.95z"/><path d="m256 67h-60v67c0 33.137 26.863 60 60 60s60-26.863 60-60v-67z"/></g><path d="m238.177 87.181-5.332-3.691c-2.352-1.629-5.108-2.49-7.97-2.49h-19.335c-3.292 0-6.538.68-9.54 1.98v51.02c0 10.867 2.904 21.05 7.956 29.841 1.107-.853 2.151-1.799 3.114-2.841h10.43c5.79 0 10.5-4.71 10.5-10.5s-4.71-10.5-10.5-10.5h-14.528l-6.744-13.488 4.148-17.42 23.144-7.715 3.964 2.379c1.534.92 3.288 1.406 5.072 1.406 3.069 0 5.91-1.389 7.792-3.81 1.658-2.131 2.374-4.884 1.965-7.553-.408-2.669-1.916-5.082-4.136-6.618z" fill="#fcb98b"/><path d="m273.823 87.181 5.332-3.691c2.352-1.629 5.108-2.49 7.97-2.49h19.336c3.292 0 6.538.68 9.54 1.98v51.02c0 10.867-2.904 21.05-7.956 29.841-1.107-.853-2.151-1.799-3.114-2.841h-10.431c-5.79 0-10.5-4.71-10.5-10.5s4.71-10.5 10.5-10.5h14.528l6.744-13.488-4.148-17.42-23.144-7.715-3.964 2.379c-1.534.92-3.288 1.406-5.072 1.406-3.069 0-5.91-1.389-7.792-3.81-1.658-2.131-2.374-4.884-1.965-7.553.408-2.669 1.916-5.082 4.136-6.618z" fill="#fcb98b"/><path d="m262.488 149.463h-13.939l1.457-17.487 5.979.498-.916 10.989h7.419z" fill="#fcb98b"/><path d="m220 67s1.667 15.833-14 26l-10 20v-20h-7v-38l31 .129z" fill="#466089"/><path d="m228 5h43c17.673 0 32 14.327 32 32 11.046 0 20 8.954 20 20v36h-7v20l-10-20c-15.667-10.167-14-26-14-26s-17.333 11-50 11c-37.333 0-75-14.333-75-36v-13c0-13.255 10.745-24 24-24z" fill="#6e83b7"/><path d="m249.764 171.365c-.904 0-1.476-.029-1.601-.036l.336-5.991c.156.009 15.858.764 21.196-7.324l5.008 3.305c-6.09 9.229-20.155 10.046-24.939 10.046z" fill="#fcb98b"/><path d="m196 113 10-20c5.559-3.607 8.928-7.926 10.971-12h-11.431c-4.349 0-8.619 1.183-12.348 3.42l-4.192 2.515v6.065h7z" fill="#466089"/><path d="m316 113-10-20c-5.559-3.607-8.928-7.926-10.971-12h11.432c4.349 0 8.619 1.183 12.348 3.42l4.191 2.515v6.065h-7z" fill="#466089"/><path d="m276.1 90.469 5.332-3.691c1.672-1.158 3.658-1.778 5.692-1.778h19.337c3.625 0 7.181.985 10.29 2.85l12.102 7.262c2.081 1.249 3.917 2.866 5.419 4.772l23.728 30.116-22 33-8.744 1.666c-7.557 1.439-15.297-1.358-20.187-7.296l-3.069-4.37h-13.234c-1.507 0-2.812-1.209-2.763-2.715.114-3.49 2.979-6.285 6.496-6.285h17l8.5-17-3.202-13.448c-1.118-4.696-4.584-8.481-9.163-10.007l-13.772-4.591c-3.721-1.24-7.799-.793-11.162 1.225-2.536 1.521-5.9 1.134-7.783-1.147-2.197-2.661-1.635-6.612 1.183-8.563z" fill="#ffd3b3"/><path d="m487.409 212.014-109.801-79.79-34.275 48.025 77.667 53.751h-152l-13 13-13-13h-152l77.667-53.75-34.275-48.025-109.801 79.79c-12.308 8.943-19.591 23.237-19.591 38.452 0 26.252 21.281 47.533 47.533 47.533h78.467c11.046 0 20 8.954 20 20v189h210v-189c0-11.046 8.954-20 20-20h78.467c26.252 0 47.533-21.281 47.533-47.533 0-15.215-7.283-29.509-19.591-38.453z" fill="#6e83b7"/><path d="m421 234 12 11-19-11z" fill="#466089"/><path d="m331.375 167.746 14.294 9.232 29.882-41.87-14.907-10.089z" fill="#edeff1"/><circle cx="366" cy="177.138" fill="#ffe352" r="8"/><path d="m309 234h23.951l-18.951 45.809 9.293 20.058-67.293 98.466z" fill="#859cc1"/><path d="m279.833 458.333h60v8h-60z" fill="#466089"/><path d="m235.9 90.469-5.332-3.691c-1.672-1.158-3.658-1.778-5.692-1.778h-19.337c-3.625 0-7.181.985-10.29 2.85l-12.102 7.262c-2.081 1.249-3.917 2.866-5.419 4.772l-23.728 30.116 22 33 8.744 1.666c7.557 1.439 15.297-1.358 20.187-7.296l3.069-4.37h13.234c1.507 0 2.812-1.209 2.763-2.715-.114-3.49-2.979-6.285-6.497-6.285h-17l-8.5-17 3.202-13.448c1.118-4.696 4.584-8.481 9.163-10.007l13.772-4.591c3.721-1.24 7.799-.793 11.162 1.225 2.536 1.521 5.9 1.134 7.783-1.147 2.198-2.661 1.636-6.612-1.182-8.563z" fill="#ffd3b3"/><path d="m91 234-12 11 19-11z" fill="#466089"/><path d="m180.625 167.746-14.294 9.232-29.882-41.87 14.907-10.089z" fill="#edeff1"/><circle cx="146" cy="177.138" fill="#ffe352" r="8"/><path d="m203 234h-23.951l18.951 45.809-9.293 20.058 67.293 98.466z" fill="#859cc1"/><path d="m172.167 458.333h60v8h-60z" fill="#466089"/><path d="m203 234 53 164.333 53-164.333h-40l-13 13-13-13z" fill="#edeff1"/><path d="m284 219-28 28-28-28-20 15h-5l30.935 45.809 18.757-26.683 3.308-1.654 3.308 1.654 18.757 26.683 30.935-45.809h-5z" fill="#d3d3d3"/><path d="m228 219-20 15 26.011 38.746 15.989-22.746 6-3z" fill="#edeff1"/><path d="m284 219 20 15-26.011 38.746-15.989-22.746-6-3z" fill="#edeff1"/><path d="m262 250-6-3-6 3-13.709 19.502 9.855 13.498h9.854 9.854l9.855-13.498z" fill="#ffb0aa"/><path d="m271.665 268.541c-3.651 5.002-9.472 7.959-15.665 7.959-6.193 0-12.013-2.957-15.665-7.959l-1.716-2.351-2.328 3.312 9.855 13.498h9.854 9.854l9.854-13.498-2.328-3.312z" fill="#ff7b7b"/><path d="m265.854 283 8.223 59.283-18.077 56.05-18.077-56.05 8.223-59.283z" fill="#ffb0aa"/><path d="m263.059 291.974h-2c0-7.404-2.012-9.267-2.787-9.36l-1.944.002c-.719.091-2.73 1.954-2.73 9.358h-2c0-11.02 4.243-11.356 4.726-11.358h2.004c.488.002 4.731.338 4.731 11.358z" fill="#ff7b7b"/><path d="m256 102h-25v25h16l9-6 9 6h16v-25z" fill="#466089"/><circle cx="292" cy="127" fill="#6e83b7" r="30"/><circle cx="292" cy="127" fill="#80d6fb" r="22"/><circle cx="256" cy="107" fill="#6e83b7" r="7"/><circle cx="220" cy="127" fill="#6e83b7" r="30"/><circle cx="220" cy="127" fill="#80d6fb" r="22"/></svg>